<svg id="Group_66" data-name="Group 66" xmlns="http://www.w3.org/2000/svg" xmlns:xlink="http://www.w3.org/1999/xlink" width="231.442" height="231.961" viewBox="0 0 231.442 231.961">
  <defs>
    <clipPath id="clip-path">
      <rect id="Rectangle_38" data-name="Rectangle 38" width="231.442" height="231.961" fill="none"/>
    </clipPath>
  </defs>
  <g id="Group_65" data-name="Group 65" clip-path="url(#clip-path)">
    <path id="Path_308" data-name="Path 308" d="M217.891,110.679,201.253,126.89l-19.769,19.26-21.2,20.66-21.006,20.466L120.1,205.957l-15.652,15.25-9.565,9.319c1.611.3,3.209.555,4.783.776,1.374-1.369,2.792-2.7,4.178-4.05l11.013-10.731,15.376-14.981,18.2-17.73,19.516-19.015,19.332-18.835,17.57-17.119,14.472-14.1,9.786-9.534,2.334-2.275c-.181-1.611-.389-3.215-.641-4.815-.3.283-.6.565-.889.851l-12.02,11.711" fill="#758b9d"/>
    <path id="Path_309" data-name="Path 309" d="M223.869,136.706l-29.919,29.15-34.442,33.557-28.491,27.76-4.915,4.788c2.123-.179,4.226-.412,6.289-.708,3.66-3.837,7.651-7.419,11.444-11.114l24.952-24.311L197.558,167.8,221.364,144.6l9.164-8.928q.537-3.151.89-6.323l-7.549,7.355" fill="#758b9d"/>
    <path id="Path_310" data-name="Path 310" d="M214.582,177.607l-10.741,10.465L183.1,208.284l-8.377,8.163.113-.065a116.866,116.866,0,0,0,30.148-25.507,113.055,113.055,0,0,0,9.6-13.268" fill="#758b9d"/>
    <path id="Path_311" data-name="Path 311" d="M52.976,181.258l19.648-19.143L95.876,139.46l24.939-24.3L145.521,91.09l22.557-21.976L186.564,51.1l12.468-12.147,2.053-2q-1.325-1.419-2.692-2.8c-1.443,1.4-2.9,2.79-4.339,4.191L179.977,52.064,160.262,71.273,137.009,93.929l-24.938,24.3L87.366,142.3,64.808,164.275,46.257,182.349,33.8,194.488l-2.029,1.978c.24.252.47.514.713.764.661.676,1.334,1.342,2.01,2,1.463-1.423,2.941-2.831,4.4-4.251l14.086-13.724" fill="#758b9d"/>
    <path id="Path_312" data-name="Path 312" d="M38.493,67.962,73.816,33.547,102.884,5.226,108.247,0c-2.051.129-4.1.315-6.142.546-1.071,1.079-2.192,2.118-3.277,3.175Q94.582,7.86,90.334,12L64.63,37.041,34.793,66.111,10.12,90.15.7,99.33c-.288,1.983-.519,4-.7,6.039,2.7-2.608,5.432-5.2,8.119-7.813Z" fill="#758b9d"/>
    <path id="Path_313" data-name="Path 313" d="M26.173,41.917A115.659,115.659,0,0,0,14.436,59.005c-.222.394-.431.784-.647,1.175L28.422,45.924,50.584,24.33,62.631,12.593c-1.213.628-2.43,1.276-3.66,1.966a116.88,116.88,0,0,0-32.8,27.358" fill="#758b9d"/>
    <path id="Path_314" data-name="Path 314" d="M14.44,123.249l16.853-16.42L51.227,87.407,72.605,66.579,93.87,45.86,113.2,27.025,129.05,11.584l9.8-9.551c-1.562-.317-3.131-.6-4.7-.852-1.388,1.383-2.822,2.729-4.222,4.093L118.759,16.155,103.171,31.342,84.723,49.316,64.937,68.594l-19.6,19.1L27.441,105.127,12.774,119.416l-9.916,9.662L.5,131.375c.207,1.56.443,3.139.724,4.732.349-.333.7-.665,1.047-1L14.44,123.249" fill="#758b9d"/>
    <path id="Path_315" data-name="Path 315" d="M142.148,25.219,124.316,42.593l-21.185,20.64L80.5,85.284,58.078,107.129,37.529,127.15,20.754,143.494,9.4,154.554l-2.5,2.432q.738,1.982,1.541,3.912c.913-.872,1.83-1.741,2.733-2.62L24.6,145.2,43.2,127.08l22-21.435L88.793,82.658l23.375-22.774,21.421-20.871,17.49-17.041,11.868-11.563.524-.51q-1.923-.864-3.877-1.655c-1.524,1.506-3.084,2.982-4.617,4.475l-12.829,12.5" fill="#758b9d"/>
    <path id="Path_316" data-name="Path 316" d="M91.17,207.748l17.68-17.226,21-20.465,22.53-21.951L174.7,126.361,195,106.588,211.64,90.373l11.3-11.013,2.485-2.421q-.71-2-1.488-3.965c-.879.84-1.763,1.676-2.631,2.523L207.986,88.478l-18.534,18.058L167.52,127.9l-23.429,22.827-23.3,22.7L99.527,194.15,82.16,211.071,70.367,222.562l-.456.443q1.945.837,3.933,1.6c1.521-1.5,3.074-2.973,4.6-4.462l12.724-12.4" fill="#758b9d"/>
    <path id="Path_317" data-name="Path 317" d="M162.369,37.369l-19.15,18.658L120.552,78.111,96.241,101.8,72.154,125.266l-21.99,21.425L32.14,164.252,19.954,176.125,17.6,178.42c.706,1.111,1.437,2.206,2.178,3.293,1.249-1.205,2.507-2.4,3.747-3.61q7.039-6.858,14.078-13.717l19.445-18.944,23.087-22.494,24.761-24.125,24.444-23.816,22.4-21.825L170.1,35.292l12.416-12.1,1.476-1.439c-1.068-.767-2.153-1.525-3.251-2.261-1.529,1.5-3.079,2.973-4.609,4.463l-13.763,13.41" fill="#758b9d"/>
    <path id="Path_318" data-name="Path 318" d="M70.755,195.788,89.838,177.2l22.584-22.005,24.223-23.6,24-23.381,21.909-21.346,17.956-17.495,12.141-11.828,2.372-2.311c-.691-1.124-1.406-2.232-2.132-3.333-1.235,1.189-2.478,2.369-3.7,3.561l-13.963,13.6L175.729,88.056,152.652,110.54l-24.658,24.025-24.428,23.8L81.261,180.1l-18.35,17.878L50.546,210.023,49.134,211.4c1.087.757,2.193,1.484,3.3,2.207,1.537-1.507,3.1-2.991,4.638-4.489l13.679-13.328" fill="#758b9d"/>
  </g>
</svg>
