<svg id="Group_47" data-name="Group 47" xmlns="http://www.w3.org/2000/svg" xmlns:xlink="http://www.w3.org/1999/xlink" width="222.951" height="216.961" viewBox="0 0 222.951 216.961">
  <defs>
    <clipPath id="clip-path">
      <rect id="Rectangle_27" data-name="Rectangle 27" width="222.951" height="216.961" fill="none"/>
    </clipPath>
  </defs>
  <g id="Group_46" data-name="Group 46" clip-path="url(#clip-path)">
    <path id="Path_282" data-name="Path 282" d="M45.995,80.493a21.726,21.726,0,0,1-14.2,20.249,21.529,21.529,0,1,1-3.08-41.356A21.755,21.755,0,0,1,45.995,80.493a1.5,1.5,0,0,0,3,0A24.818,24.818,0,0,0,32.9,57.465a24.524,24.524,0,1,0-3.56,47.062,24.768,24.768,0,0,0,19.65-24.034,1.5,1.5,0,0,0-3,0" fill="#758b9d"/>
    <path id="Path_283" data-name="Path 283" d="M103.98,80.493A21.522,21.522,0,1,1,86.7,59.386,21.726,21.726,0,0,1,103.98,80.493a1.5,1.5,0,0,0,3,0,24.525,24.525,0,1,0-19.65,24.034,24.818,24.818,0,0,0,19.65-24.034,1.5,1.5,0,0,0-3,0" fill="#758b9d"/>
    <path id="Path_284" data-name="Path 284" d="M161.966,80.493a21.522,21.522,0,1,1-17.281-21.107,21.726,21.726,0,0,1,17.281,21.107,1.5,1.5,0,0,0,3,0,24.525,24.525,0,1,0-19.65,24.034,24.818,24.818,0,0,0,19.65-24.034,1.5,1.5,0,0,0-3,0" fill="#758b9d"/>
    <path id="Path_285" data-name="Path 285" d="M219.951,80.493A21.522,21.522,0,1,1,202.67,59.386a21.726,21.726,0,0,1,17.281,21.107,1.5,1.5,0,0,0,3,0,24.525,24.525,0,1,0-19.65,24.034,24.818,24.818,0,0,0,19.65-24.034,1.5,1.5,0,0,0-3,0" fill="#758b9d"/>
    <path id="Path_286" data-name="Path 286" d="M103.97,136.48a21.522,21.522,0,1,1-17.281-21.107A21.726,21.726,0,0,1,103.97,136.48a1.5,1.5,0,0,0,3,0,24.525,24.525,0,1,0-19.65,24.034,24.818,24.818,0,0,0,19.65-24.034,1.5,1.5,0,0,0-3,0" fill="#758b9d"/>
    <path id="Path_287" data-name="Path 287" d="M161.945,136.48a21.522,21.522,0,1,1-17.281-21.107,21.726,21.726,0,0,1,17.281,21.107,1.5,1.5,0,0,0,3,0,24.525,24.525,0,1,0-19.65,24.034,24.818,24.818,0,0,0,19.65-24.034,1.5,1.5,0,0,0-3,0" fill="#758b9d"/>
    <path id="Path_288" data-name="Path 288" d="M219.92,136.48a21.522,21.522,0,1,1-17.281-21.107A21.726,21.726,0,0,1,219.92,136.48a1.5,1.5,0,0,0,3,0,24.525,24.525,0,1,0-19.65,24.034,24.818,24.818,0,0,0,19.65-24.034,1.5,1.5,0,0,0-3,0" fill="#758b9d"/>
    <path id="Path_289" data-name="Path 289" d="M45.995,136.48a21.726,21.726,0,0,1-14.2,20.249,21.529,21.529,0,1,1-3.08-41.356A21.755,21.755,0,0,1,45.995,136.48a1.5,1.5,0,0,0,3,0A24.818,24.818,0,0,0,32.9,113.452a24.524,24.524,0,1,0-3.56,47.062,24.768,24.768,0,0,0,19.65-24.034,1.5,1.5,0,0,0-3,0" fill="#758b9d"/>
    <path id="Path_290" data-name="Path 290" d="M45.995,192.466a21.726,21.726,0,0,1-14.2,20.249,21.529,21.529,0,1,1-3.08-41.356,21.755,21.755,0,0,1,17.281,21.107,1.5,1.5,0,0,0,3,0A24.818,24.818,0,0,0,32.9,169.438a24.524,24.524,0,1,0-3.56,47.062,24.768,24.768,0,0,0,19.65-24.034,1.5,1.5,0,0,0-3,0" fill="#758b9d"/>
    <path id="Path_291" data-name="Path 291" d="M103.98,192.466A21.522,21.522,0,1,1,86.7,171.359a21.726,21.726,0,0,1,17.281,21.107,1.5,1.5,0,0,0,3,0A24.525,24.525,0,1,0,87.33,216.5a24.818,24.818,0,0,0,19.65-24.034,1.5,1.5,0,0,0-3,0" fill="#758b9d"/>
    <path id="Path_292" data-name="Path 292" d="M161.966,192.466a21.522,21.522,0,1,1-17.281-21.107,21.726,21.726,0,0,1,17.281,21.107,1.5,1.5,0,0,0,3,0,24.525,24.525,0,1,0-19.65,24.034,24.818,24.818,0,0,0,19.65-24.034,1.5,1.5,0,0,0-3,0" fill="#758b9d"/>
    <path id="Path_293" data-name="Path 293" d="M219.951,192.466a21.522,21.522,0,1,1-17.281-21.107,21.726,21.726,0,0,1,17.281,21.107,1.5,1.5,0,0,0,3,0A24.525,24.525,0,1,0,203.3,216.5a24.818,24.818,0,0,0,19.65-24.034,1.5,1.5,0,0,0-3,0" fill="#758b9d"/>
    <path id="Path_294" data-name="Path 294" d="M103.97,24.507A21.524,21.524,0,1,1,64.033,13.362,21.522,21.522,0,0,1,103.97,24.507a1.5,1.5,0,0,0,3,0,24.522,24.522,0,1,0-45.528,12.66,24.525,24.525,0,0,0,45.528-12.66,1.5,1.5,0,0,0-3,0" fill="#758b9d"/>
    <path id="Path_295" data-name="Path 295" d="M161.945,24.507a21.524,21.524,0,1,1-39.937-11.145,21.522,21.522,0,0,1,39.937,11.145,1.5,1.5,0,0,0,3,0,24.522,24.522,0,1,0-45.528,12.66,24.525,24.525,0,0,0,45.528-12.66,1.5,1.5,0,0,0-3,0" fill="#758b9d"/>
    <path id="Path_296" data-name="Path 296" d="M219.92,24.507a21.524,21.524,0,1,1-39.937-11.145A21.522,21.522,0,0,1,219.92,24.507a1.5,1.5,0,0,0,3,0,24.522,24.522,0,1,0-45.528,12.66,24.525,24.525,0,0,0,45.528-12.66,1.5,1.5,0,0,0-3,0" fill="#758b9d"/>
    <path id="Path_297" data-name="Path 297" d="M45.995,24.507a21.726,21.726,0,0,1-14.2,20.249A21.781,21.781,0,0,1,7.926,38.279,21.53,21.53,0,0,1,28.714,3.4,21.755,21.755,0,0,1,45.995,24.507a1.5,1.5,0,0,0,3,0A24.818,24.818,0,0,0,32.9,1.479,24.529,24.529,0,0,0,3.467,37.167,24.794,24.794,0,0,0,29.345,48.541a24.768,24.768,0,0,0,19.65-24.034,1.5,1.5,0,0,0-3,0" fill="#758b9d"/>
  </g>
</svg>
