<svg width="182" height="217" viewBox="0 0 182 217" fill="none" xmlns="http://www.w3.org/2000/svg">
<path d="M8.36829 0H14.7834C15.9389 0 16.8753 1.15551 16.8753 2.09192V8.50702C16.8753 9.66254 15.939 10.5989 14.7834 10.5989H8.36829C7.21278 10.5989 6.27637 9.44343 6.27637 8.50702V2.09192C6.27637 0.936407 7.21273 0 8.36829 0Z" fill="#758799" fill-opacity="0.3"/>
<path d="M49.6495 0H56.0646C57.2202 0 58.1566 1.15551 58.1566 2.09192V8.50702C58.1566 9.66254 57.2202 10.5989 56.0646 10.5989H49.6495C48.494 10.5989 47.5576 9.44343 47.5576 8.50702V2.09192C47.5576 0.936407 48.494 0 49.6495 0Z" fill="#758799" fill-opacity="0.3"/>
<path d="M90.9318 0H97.3469C98.5024 0 99.4388 1.15551 99.4388 2.09192V8.50702C99.4388 9.66254 98.5024 10.5989 97.3469 10.5989H90.9318C89.7762 10.5989 88.8398 9.44343 88.8398 8.50702V2.09192C88.8398 0.936407 89.7762 0 90.9318 0Z" fill="#758799" fill-opacity="0.3"/>
<path d="M132.213 0H138.628C139.784 0 140.72 1.15551 140.72 2.09192V8.50702C140.72 9.66254 139.784 10.5989 138.628 10.5989H132.213C131.057 10.5989 130.121 9.44343 130.121 8.50702V2.09192C130.121 0.936407 131.057 0 132.213 0Z" fill="#758799" fill-opacity="0.3"/>
<path d="M173.489 0H179.904C181.06 0 181.996 1.15551 181.996 2.09192V8.50702C181.996 9.66254 181.06 10.5989 179.904 10.5989H173.489C172.334 10.5989 171.397 9.44343 171.397 8.50702V2.09192C171.397 0.936407 172.334 0 173.489 0Z" fill="#758799" fill-opacity="0.3"/>
<path d="M8.36829 41.2791H14.7834C15.9389 41.2791 16.8753 42.4346 16.8753 43.371V49.7861C16.8753 50.9416 15.939 51.878 14.7834 51.878H8.36829C7.21278 51.878 6.27637 50.7225 6.27637 49.7861V43.371C6.27637 42.2155 7.21273 41.2791 8.36829 41.2791Z" fill="#758799" fill-opacity="0.3"/>
<path d="M49.6495 41.2788H56.0646C57.2202 41.2788 58.1566 42.4343 58.1566 43.3707V49.7858C58.1566 50.9413 57.2202 51.8778 56.0646 51.8778H49.6495C48.494 51.8778 47.5576 50.7222 47.5576 49.7858V43.3707C47.5576 42.2152 48.494 41.2788 49.6495 41.2788Z" fill="#758799" fill-opacity="0.3"/>
<path d="M90.9318 41.2791H97.3469C98.5024 41.2791 99.4388 42.4346 99.4388 43.371V49.7861C99.4388 50.9416 98.5024 51.878 97.3469 51.878H90.9318C89.7762 51.878 88.8398 50.7225 88.8398 49.7861V43.371C88.8398 42.2155 89.7762 41.2791 90.9318 41.2791Z" fill="#758799" fill-opacity="0.3"/>
<path d="M132.213 41.2791H138.628C139.784 41.2791 140.72 42.4346 140.72 43.371V49.7861C140.72 50.9416 139.784 51.878 138.628 51.878H132.213C131.057 51.878 130.121 50.7225 130.121 49.7861V43.371C130.121 42.2155 131.057 41.2791 132.213 41.2791Z" fill="#758799" fill-opacity="0.3"/>
<path d="M173.489 41.2791H179.904C181.06 41.2791 181.996 42.4346 181.996 43.371V49.7861C181.996 50.9416 181.06 51.878 179.904 51.878H173.489C172.334 51.878 171.397 50.7225 171.397 49.7861V43.371C171.397 42.2155 172.334 41.2791 173.489 41.2791Z" fill="#758799" fill-opacity="0.3"/>
<path d="M8.36829 82.5601H14.7834C15.9389 82.5601 16.8753 83.7156 16.8753 84.652V91.0671C16.8753 92.2226 15.939 93.159 14.7834 93.159H8.36829C7.21278 93.159 6.27637 92.0035 6.27637 91.0671V84.652C6.27637 83.4965 7.21273 82.5601 8.36829 82.5601Z" fill="#758799" fill-opacity="0.3"/>
<path d="M49.6495 82.5601H56.0646C57.2202 82.5601 58.1566 83.7156 58.1566 84.652V91.0671C58.1566 92.2226 57.2202 93.159 56.0646 93.159H49.6495C48.494 93.159 47.5576 92.0035 47.5576 91.0671V84.652C47.5576 83.4965 48.494 82.5601 49.6495 82.5601Z" fill="#758799" fill-opacity="0.3"/>
<path d="M90.9318 82.5601H97.3469C98.5024 82.5601 99.4388 83.7156 99.4388 84.652V91.0671C99.4388 92.2226 98.5024 93.159 97.3469 93.159H90.9318C89.7762 93.159 88.8398 92.0035 88.8398 91.0671V84.652C88.8398 83.4965 89.7762 82.5601 90.9318 82.5601Z" fill="#758799" fill-opacity="0.3"/>
<path d="M132.213 82.5601H138.628C139.784 82.5601 140.72 83.7156 140.72 84.652V91.0671C140.72 92.2226 139.784 93.159 138.628 93.159H132.213C131.057 93.159 130.121 92.0035 130.121 91.0671V84.652C130.121 83.4965 131.057 82.5601 132.213 82.5601Z" fill="#758799" fill-opacity="0.3"/>
<path d="M173.489 82.5601H179.904C181.06 82.5601 181.996 83.7156 181.996 84.652V91.0671C181.996 92.2226 181.06 93.159 179.904 93.159H173.489C172.334 93.159 171.397 92.0035 171.397 91.0671V84.652C171.397 83.4965 172.334 82.5601 173.489 82.5601Z" fill="#758799" fill-opacity="0.3"/>
<path d="M8.36829 123.842H14.7834C15.9389 123.842 16.8753 124.998 16.8753 125.934V132.349C16.8753 133.505 15.939 134.441 14.7834 134.441H8.36829C7.21278 134.441 6.27637 133.285 6.27637 132.349V125.934C6.27637 124.778 7.21273 123.842 8.36829 123.842Z" fill="#758799" fill-opacity="0.3"/>
<path d="M49.6495 123.842H56.0646C57.2202 123.842 58.1566 124.997 58.1566 125.934V132.349C58.1566 133.504 57.2202 134.441 56.0646 134.441H49.6495C48.494 134.441 47.5576 133.285 47.5576 132.349V125.934C47.5576 124.778 48.494 123.842 49.6495 123.842Z" fill="#758799" fill-opacity="0.3"/>
<path d="M90.9318 123.842H97.3469C98.5024 123.842 99.4388 124.998 99.4388 125.934V132.349C99.4388 133.505 98.5024 134.441 97.3469 134.441H90.9318C89.7762 134.441 88.8398 133.285 88.8398 132.349V125.934C88.8398 124.778 89.7762 123.842 90.9318 123.842Z" fill="#758799" fill-opacity="0.3"/>
<path d="M132.213 123.842H138.628C139.784 123.842 140.72 124.998 140.72 125.934V132.349C140.72 133.505 139.784 134.441 138.628 134.441H132.213C131.057 134.441 130.121 133.285 130.121 132.349V125.934C130.121 124.778 131.057 123.842 132.213 123.842Z" fill="#758799" fill-opacity="0.3"/>
<path d="M173.489 123.842H179.904C181.06 123.842 181.996 124.998 181.996 125.934V132.349C181.996 133.505 181.06 134.441 179.904 134.441H173.489C172.334 134.441 171.397 133.285 171.397 132.349V125.934C171.397 124.778 172.334 123.842 173.489 123.842Z" fill="#758799" fill-opacity="0.3"/>
<path d="M8.36829 165.124H14.7834C15.9389 165.124 16.8753 166.279 16.8753 167.216V173.631C16.8753 174.786 15.939 175.723 14.7834 175.723H8.36829C7.21278 175.723 6.27637 174.567 6.27637 173.631V167.216C6.27637 166.06 7.21273 165.124 8.36829 165.124Z" fill="#758799" fill-opacity="0.3"/>
<path d="M49.6495 165.124H56.0646C57.2202 165.124 58.1566 166.28 58.1566 167.216V173.631C58.1566 174.787 57.2202 175.723 56.0646 175.723H49.6495C48.494 175.723 47.5576 174.567 47.5576 173.631V167.216C47.5576 166.06 48.494 165.124 49.6495 165.124Z" fill="#758799" fill-opacity="0.3"/>
<path d="M90.9318 165.124H97.3469C98.5024 165.124 99.4388 166.279 99.4388 167.216V173.631C99.4388 174.786 98.5024 175.723 97.3469 175.723H90.9318C89.7762 175.723 88.8398 174.567 88.8398 173.631V167.216C88.8398 166.06 89.7762 165.124 90.9318 165.124Z" fill="#758799" fill-opacity="0.3"/>
<path d="M132.213 165.124H138.628C139.784 165.124 140.72 166.279 140.72 167.216V173.631C140.72 174.786 139.784 175.723 138.628 175.723H132.213C131.057 175.723 130.121 174.567 130.121 173.631V167.216C130.121 166.06 131.057 165.124 132.213 165.124Z" fill="#758799" fill-opacity="0.3"/>
<path d="M173.489 165.124H179.904C181.06 165.124 181.996 166.279 181.996 167.216V173.631C181.996 174.786 181.06 175.723 179.904 175.723H173.489C172.334 175.723 171.397 174.567 171.397 173.631V167.216C171.397 166.06 172.334 165.124 173.489 165.124Z" fill="#758799" fill-opacity="0.3"/>
<path d="M8.36829 206.401H14.7834C15.9389 206.401 16.8753 207.557 16.8753 208.493V214.908C16.8753 216.064 15.939 217 14.7834 217H8.36829C7.21278 217 6.27637 215.844 6.27637 214.908V208.493C6.27637 207.337 7.21273 206.401 8.36829 206.401Z" fill="#758799" fill-opacity="0.3"/>
<path d="M49.6495 206.401H56.0646C57.2202 206.401 58.1566 207.556 58.1566 208.493V214.908C58.1566 216.063 57.2202 217 56.0646 217H49.6495C48.494 217 47.5576 215.844 47.5576 214.908V208.493C47.5576 207.337 48.494 206.401 49.6495 206.401Z" fill="#758799" fill-opacity="0.3"/>
<path d="M90.9318 206.401H97.3469C98.5024 206.401 99.4388 207.557 99.4388 208.493V214.908C99.4388 216.064 98.5024 217 97.3469 217H90.9318C89.7762 217 88.8398 215.844 88.8398 214.908V208.493C88.8398 207.337 89.7762 206.401 90.9318 206.401Z" fill="#758799" fill-opacity="0.3"/>
<path d="M132.213 206.401H138.628C139.784 206.401 140.72 207.557 140.72 208.493V214.908C140.72 216.064 139.784 217 138.628 217H132.213C131.057 217 130.121 215.844 130.121 214.908V208.493C130.121 207.337 131.057 206.401 132.213 206.401Z" fill="#758799" fill-opacity="0.3"/>
<path d="M173.489 206.401H179.904C181.06 206.401 181.996 207.557 181.996 208.493V214.908C181.996 216.064 181.06 217 179.904 217H173.489C172.334 217 171.397 215.844 171.397 214.908V208.493C171.397 207.337 172.334 206.401 173.489 206.401Z" fill="#758799" fill-opacity="0.3"/>
</svg>
